<?xml version="1.0" encoding="UTF-8" standalone="no"?>
<!DOCTYPE svg PUBLIC "-//W3C//DTD SVG 1.1//EN"
 "http://www.w3.org/Graphics/SVG/1.1/DTD/svg11.dtd">
<!-- Generated by graphviz version 2.38.0 (20140413.2041)
 -->
<!-- Title: G Pages: 1 -->
<svg width="293pt" height="726pt"
 viewBox="0.00 0.00 293.00 726.00" xmlns="http://www.w3.org/2000/svg" xmlns:xlink="http://www.w3.org/1999/xlink">
<g id="graph0" class="graph" transform="scale(1 1) rotate(0) translate(4 722)">
<title>G</title>
<polygon fill="white" stroke="none" points="-4,4 -4,-722 289,-722 289,4 -4,4"/>
<g id="clust1" class="cluster"><title>cluster_Global</title>
<path fill="none" stroke="gray" d="M20,-44C20,-44 265,-44 265,-44 271,-44 277,-50 277,-56 277,-56 277,-698 277,-698 277,-704 271,-710 265,-710 265,-710 20,-710 20,-710 14,-710 8,-704 8,-698 8,-698 8,-56 8,-56 8,-50 14,-44 20,-44"/>
<text text-anchor="middle" x="142.5" y="-697.2" font-family="Times,serif" font-size="11.00" fill="gray">Global</text>
</g>
<!-- \\KYSS_DB -->
<g id="node1" class="node"><title>\\KYSS_DB</title>
<polygon fill="none" stroke="black" points="249.5,-520 183.5,-520 183.5,-484 249.5,-484 249.5,-520"/>
<text text-anchor="middle" x="216.5" y="-499.2" font-family="Times,serif" font-size="11.00">KYSS_DB</text>
</g>
<!-- \\mysqli -->
<g id="node14" class="node"><title>\\mysqli</title>
<ellipse fill="none" stroke="black" cx="54" cy="-18" rx="37.8943" ry="18"/>
<text text-anchor="middle" x="54" y="-14.3" font-family="Times,serif" font-size="14.00" fill="gray">\mysqli</text>
</g>
<!-- \\KYSS_DB&#45;&gt;\\mysqli -->
<g id="edge1" class="edge"><title>\\KYSS_DB&#45;&gt;\\mysqli</title>
<path fill="none" stroke="black" d="M183.456,-490.977C176.049,-487.016 168.909,-481.79 164,-475 49.1872,-316.193 202.519,-201.825 92,-40 91.265,-38.9239 90.4585,-37.8922 89.5937,-36.9041"/>
<polygon fill="none" stroke="black" points="91.8299,-34.2087 82.0384,-30.1618 87.1691,-39.4315 91.8299,-34.2087"/>
</g>
<!-- \\KYSS_Subscription -->
<g id="node2" class="node"><title>\\KYSS_Subscription</title>
<polygon fill="none" stroke="black" points="269,-628 164,-628 164,-592 269,-592 269,-628"/>
<text text-anchor="middle" x="216.5" y="-607.2" font-family="Times,serif" font-size="11.00">KYSS_Subscription</text>
</g>
<!-- \\KYSS_Event -->
<g id="node3" class="node"><title>\\KYSS_Event</title>
<polygon fill="none" stroke="black" points="92,-628 16,-628 16,-592 92,-592 92,-628"/>
<text text-anchor="middle" x="54" y="-607.2" font-family="Times,serif" font-size="11.00">KYSS_Event</text>
</g>
<!-- \\KYSS_Meeting -->
<g id="node4" class="node"><title>\\KYSS_Meeting</title>
<polygon fill="none" stroke="black" points="260,-682 173,-682 173,-646 260,-646 260,-682"/>
<text text-anchor="middle" x="216.5" y="-661.2" font-family="Times,serif" font-size="11.00">KYSS_Meeting</text>
</g>
<!-- \\KYSS_Meeting&#45;&gt;\\KYSS_Event -->
<g id="edge2" class="edge"><title>\\KYSS_Meeting&#45;&gt;\\KYSS_Event</title>
<path fill="none" stroke="black" d="M172.91,-649.671C150.987,-642.295 124.214,-633.287 101.724,-625.72"/>
<polygon fill="none" stroke="black" points="102.645,-622.337 92.051,-622.466 100.413,-628.972 102.645,-622.337"/>
</g>
<!-- \\KYSS_Course -->
<g id="node5" class="node"><title>\\KYSS_Course</title>
<polygon fill="none" stroke="black" points="257.5,-574 175.5,-574 175.5,-538 257.5,-538 257.5,-574"/>
<text text-anchor="middle" x="216.5" y="-553.2" font-family="Times,serif" font-size="11.00">KYSS_Course</text>
</g>
<!-- \\KYSS_Course&#45;&gt;\\KYSS_Event -->
<g id="edge3" class="edge"><title>\\KYSS_Course&#45;&gt;\\KYSS_Event</title>
<path fill="none" stroke="black" d="M175.413,-569.487C153.071,-577.004 125.133,-586.404 101.794,-594.256"/>
<polygon fill="none" stroke="black" points="100.465,-591.011 92.1031,-597.517 102.697,-597.645 100.465,-591.011"/>
</g>
<!-- \\KYSS_Talk -->
<g id="node6" class="node"><title>\\KYSS_Talk</title>
<polygon fill="none" stroke="black" points="252,-466 181,-466 181,-430 252,-430 252,-466"/>
<text text-anchor="middle" x="216.5" y="-445.2" font-family="Times,serif" font-size="11.00">KYSS_Talk</text>
</g>
<!-- \\KYSS_Lesson -->
<g id="node7" class="node"><title>\\KYSS_Lesson</title>
<polygon fill="none" stroke="black" points="257.5,-412 175.5,-412 175.5,-376 257.5,-376 257.5,-412"/>
<text text-anchor="middle" x="216.5" y="-391.2" font-family="Times,serif" font-size="11.00">KYSS_Lesson</text>
</g>
<!-- \\KYSS_Pass -->
<g id="node8" class="node"><title>\\KYSS_Pass</title>
<polygon fill="none" stroke="black" points="252,-358 181,-358 181,-322 252,-322 252,-358"/>
<text text-anchor="middle" x="216.5" y="-337.2" font-family="Times,serif" font-size="11.00">KYSS_Pass</text>
</g>
<!-- \\KYSS_Hook -->
<g id="node9" class="node"><title>\\KYSS_Hook</title>
<polygon fill="none" stroke="black" points="253.5,-304 179.5,-304 179.5,-268 253.5,-268 253.5,-304"/>
<text text-anchor="middle" x="216.5" y="-283.2" font-family="Times,serif" font-size="11.00">KYSS_Hook</text>
</g>
<!-- \\KYSS_Error -->
<g id="node10" class="node"><title>\\KYSS_Error</title>
<polygon fill="none" stroke="black" points="253.5,-250 179.5,-250 179.5,-214 253.5,-214 253.5,-250"/>
<text text-anchor="middle" x="216.5" y="-229.2" font-family="Times,serif" font-size="11.00">KYSS_Error</text>
</g>
<!-- \\KYSS_Practice -->
<g id="node11" class="node"><title>\\KYSS_Practice</title>
<polygon fill="none" stroke="black" points="260,-196 173,-196 173,-160 260,-160 260,-196"/>
<text text-anchor="middle" x="216.5" y="-175.2" font-family="Times,serif" font-size="11.00">KYSS_Practice</text>
</g>
<!-- \\KYSS_Report -->
<g id="node12" class="node"><title>\\KYSS_Report</title>
<polygon fill="none" stroke="black" points="256.5,-142 176.5,-142 176.5,-106 256.5,-106 256.5,-142"/>
<text text-anchor="middle" x="216.5" y="-121.2" font-family="Times,serif" font-size="11.00">KYSS_Report</text>
</g>
<!-- \\KYSS_Budget -->
<g id="node13" class="node"><title>\\KYSS_Budget</title>
<polygon fill="none" stroke="black" points="257.5,-88 175.5,-88 175.5,-52 257.5,-52 257.5,-88"/>
<text text-anchor="middle" x="216.5" y="-67.2" font-family="Times,serif" font-size="11.00">KYSS_Budget</text>
</g>
</g>
</svg>
