<?xml version="1.0" encoding="UTF-8" standalone="no"?>
<!DOCTYPE svg PUBLIC "-//W3C//DTD SVG 1.1//EN"
 "http://www.w3.org/Graphics/SVG/1.1/DTD/svg11.dtd">
<!-- Generated by graphviz version 2.38.0 (20140413.2041)
 -->
<!-- Title: G Pages: 1 -->
<svg width="254pt" height="420pt"
 viewBox="0.00 0.00 254.39 420.00" xmlns="http://www.w3.org/2000/svg" xmlns:xlink="http://www.w3.org/1999/xlink">
<g id="graph0" class="graph" transform="scale(1 1) rotate(0) translate(4 416)">
<title>G</title>
<polygon fill="white" stroke="none" points="-4,4 -4,-416 250.393,-416 250.393,4 -4,4"/>
<g id="clust1" class="cluster"><title>cluster_Global</title>
<path fill="none" stroke="gray" d="M151.393,-8C151.393,-8 226.393,-8 226.393,-8 232.393,-8 238.393,-14 238.393,-20 238.393,-20 238.393,-392 238.393,-392 238.393,-398 232.393,-404 226.393,-404 226.393,-404 151.393,-404 151.393,-404 145.393,-404 139.393,-398 139.393,-392 139.393,-392 139.393,-20 139.393,-20 139.393,-14 145.393,-8 151.393,-8"/>
<text text-anchor="middle" x="188.893" y="-391.2" font-family="Times,serif" font-size="11.00" fill="gray">Global</text>
</g>
<!-- \\KYSS_DB -->
<g id="node1" class="node"><title>\\KYSS_DB</title>
<polygon fill="none" stroke="black" points="221.893,-376 155.893,-376 155.893,-340 221.893,-340 221.893,-376"/>
<text text-anchor="middle" x="188.893" y="-355.2" font-family="Times,serif" font-size="11.00">KYSS_DB</text>
</g>
<!-- \\mysqli -->
<g id="node8" class="node"><title>\\mysqli</title>
<ellipse fill="none" stroke="black" cx="37.6967" cy="-358" rx="37.8943" ry="18"/>
<text text-anchor="middle" x="37.6967" y="-354.3" font-family="Times,serif" font-size="14.00" fill="gray">\mysqli</text>
</g>
<!-- \\KYSS_DB&#45;&gt;\\mysqli -->
<g id="edge1" class="edge"><title>\\KYSS_DB&#45;&gt;\\mysqli</title>
<path fill="none" stroke="black" d="M155.887,-358C135.468,-358 108.646,-358 85.8161,-358"/>
<polygon fill="none" stroke="black" points="85.6449,-354.5 75.6448,-358 85.6448,-361.5 85.6449,-354.5"/>
</g>
<!-- \\KYSS_Pass -->
<g id="node2" class="node"><title>\\KYSS_Pass</title>
<polygon fill="none" stroke="black" points="224.393,-322 153.393,-322 153.393,-286 224.393,-286 224.393,-322"/>
<text text-anchor="middle" x="188.893" y="-301.2" font-family="Times,serif" font-size="11.00">KYSS_Pass</text>
</g>
<!-- \\KYSS_Hook -->
<g id="node3" class="node"><title>\\KYSS_Hook</title>
<polygon fill="none" stroke="black" points="225.893,-268 151.893,-268 151.893,-232 225.893,-232 225.893,-268"/>
<text text-anchor="middle" x="188.893" y="-247.2" font-family="Times,serif" font-size="11.00">KYSS_Hook</text>
</g>
<!-- \\KYSS_Error -->
<g id="node4" class="node"><title>\\KYSS_Error</title>
<polygon fill="none" stroke="black" points="225.893,-214 151.893,-214 151.893,-178 225.893,-178 225.893,-214"/>
<text text-anchor="middle" x="188.893" y="-193.2" font-family="Times,serif" font-size="11.00">KYSS_Error</text>
</g>
<!-- \\KYSS_User -->
<g id="node5" class="node"><title>\\KYSS_User</title>
<polygon fill="none" stroke="black" points="224.893,-160 152.893,-160 152.893,-124 224.893,-124 224.893,-160"/>
<text text-anchor="middle" x="188.893" y="-139.2" font-family="Times,serif" font-size="11.00">KYSS_User</text>
</g>
<!-- \\KYSS_Groups -->
<g id="node6" class="node"><title>\\KYSS_Groups</title>
<polygon fill="none" stroke="black" points="230.393,-106 147.393,-106 147.393,-70 230.393,-70 230.393,-106"/>
<text text-anchor="middle" x="188.893" y="-85.2" font-family="Times,serif" font-size="11.00">KYSS_Groups</text>
</g>
<!-- \\KYSS_Group -->
<g id="node7" class="node"><title>\\KYSS_Group</title>
<polygon fill="none" stroke="black" points="227.893,-52 149.893,-52 149.893,-16 227.893,-16 227.893,-52"/>
<text text-anchor="middle" x="188.893" y="-31.2" font-family="Times,serif" font-size="11.00">KYSS_Group</text>
</g>
</g>
</svg>
