<?xml version="1.0" encoding="UTF-8" standalone="no"?>
<!DOCTYPE svg PUBLIC "-//W3C//DTD SVG 1.1//EN"
 "http://www.w3.org/Graphics/SVG/1.1/DTD/svg11.dtd">
<!-- Generated by graphviz version 2.38.0 (20140413.2041)
 -->
<!-- Title: G Pages: 1 -->
<svg width="275pt" height="834pt"
 viewBox="0.00 0.00 275.00 834.00" xmlns="http://www.w3.org/2000/svg" xmlns:xlink="http://www.w3.org/1999/xlink">
<g id="graph0" class="graph" transform="scale(1 1) rotate(0) translate(4 830)">
<title>G</title>
<polygon fill="white" stroke="none" points="-4,4 -4,-830 271,-830 271,4 -4,4"/>
<g id="clust1" class="cluster"><title>cluster_Global</title>
<path fill="none" stroke="gray" d="M20,-44C20,-44 247,-44 247,-44 253,-44 259,-50 259,-56 259,-56 259,-806 259,-806 259,-812 253,-818 247,-818 247,-818 20,-818 20,-818 14,-818 8,-812 8,-806 8,-806 8,-56 8,-56 8,-50 14,-44 20,-44"/>
<text text-anchor="middle" x="133.5" y="-805.2" font-family="Times,serif" font-size="11.00" fill="gray">Global</text>
</g>
<!-- \\KYSS_DB -->
<g id="node1" class="node"><title>\\KYSS_DB</title>
<polygon fill="none" stroke="black" points="240.5,-682 174.5,-682 174.5,-646 240.5,-646 240.5,-682"/>
<text text-anchor="middle" x="207.5" y="-661.2" font-family="Times,serif" font-size="11.00">KYSS_DB</text>
</g>
<!-- \\mysqli -->
<g id="node16" class="node"><title>\\mysqli</title>
<ellipse fill="none" stroke="black" cx="54" cy="-18" rx="37.8943" ry="18"/>
<text text-anchor="middle" x="54" y="-14.3" font-family="Times,serif" font-size="14.00" fill="gray">\mysqli</text>
</g>
<!-- \\KYSS_DB&#45;&gt;\\mysqli -->
<g id="edge1" class="edge"><title>\\KYSS_DB&#45;&gt;\\mysqli</title>
<path fill="none" stroke="black" d="M174.408,-648.227C170.364,-645.021 166.704,-641.289 164,-637 21.4884,-410.911 237.834,-263.96 92,-40 91.2889,-38.908 90.503,-37.8626 89.6558,-36.8626"/>
<polygon fill="none" stroke="black" points="91.9364,-34.2058 82.1846,-30.0643 87.2253,-39.3832 91.9364,-34.2058"/>
</g>
<!-- \\KYSS_Event -->
<g id="node2" class="node"><title>\\KYSS_Event</title>
<polygon fill="none" stroke="black" points="92,-763 16,-763 16,-727 92,-727 92,-763"/>
<text text-anchor="middle" x="54" y="-742.2" font-family="Times,serif" font-size="11.00">KYSS_Event</text>
</g>
<!-- \\KYSS_Meeting -->
<g id="node3" class="node"><title>\\KYSS_Meeting</title>
<polygon fill="none" stroke="black" points="251,-790 164,-790 164,-754 251,-754 251,-790"/>
<text text-anchor="middle" x="207.5" y="-769.2" font-family="Times,serif" font-size="11.00">KYSS_Meeting</text>
</g>
<!-- \\KYSS_Meeting&#45;&gt;\\KYSS_Event -->
<g id="edge2" class="edge"><title>\\KYSS_Meeting&#45;&gt;\\KYSS_Event</title>
<path fill="none" stroke="black" d="M163.896,-764.407C144.667,-760.98 121.89,-756.921 102.149,-753.403"/>
<polygon fill="none" stroke="black" points="102.597,-749.928 92.1383,-751.619 101.369,-756.819 102.597,-749.928"/>
</g>
<!-- \\KYSS_Course -->
<g id="node4" class="node"><title>\\KYSS_Course</title>
<polygon fill="none" stroke="black" points="248.5,-736 166.5,-736 166.5,-700 248.5,-700 248.5,-736"/>
<text text-anchor="middle" x="207.5" y="-715.2" font-family="Times,serif" font-size="11.00">KYSS_Course</text>
</g>
<!-- \\KYSS_Course&#45;&gt;\\KYSS_Event -->
<g id="edge3" class="edge"><title>\\KYSS_Course&#45;&gt;\\KYSS_Event</title>
<path fill="none" stroke="black" d="M166.299,-725.165C146.576,-728.68 122.695,-732.936 102.119,-736.603"/>
<polygon fill="none" stroke="black" points="101.24,-733.204 92.0088,-738.404 102.468,-740.095 101.24,-733.204"/>
</g>
<!-- \\KYSS_Talk -->
<g id="node5" class="node"><title>\\KYSS_Talk</title>
<polygon fill="none" stroke="black" points="243,-628 172,-628 172,-592 243,-592 243,-628"/>
<text text-anchor="middle" x="207.5" y="-607.2" font-family="Times,serif" font-size="11.00">KYSS_Talk</text>
</g>
<!-- \\KYSS_Lesson -->
<g id="node6" class="node"><title>\\KYSS_Lesson</title>
<polygon fill="none" stroke="black" points="248.5,-574 166.5,-574 166.5,-538 248.5,-538 248.5,-574"/>
<text text-anchor="middle" x="207.5" y="-553.2" font-family="Times,serif" font-size="11.00">KYSS_Lesson</text>
</g>
<!-- \\KYSS_Pass -->
<g id="node7" class="node"><title>\\KYSS_Pass</title>
<polygon fill="none" stroke="black" points="243,-520 172,-520 172,-484 243,-484 243,-520"/>
<text text-anchor="middle" x="207.5" y="-499.2" font-family="Times,serif" font-size="11.00">KYSS_Pass</text>
</g>
<!-- \\KYSS_Hook -->
<g id="node8" class="node"><title>\\KYSS_Hook</title>
<polygon fill="none" stroke="black" points="244.5,-466 170.5,-466 170.5,-430 244.5,-430 244.5,-466"/>
<text text-anchor="middle" x="207.5" y="-445.2" font-family="Times,serif" font-size="11.00">KYSS_Hook</text>
</g>
<!-- \\KYSS_Error -->
<g id="node9" class="node"><title>\\KYSS_Error</title>
<polygon fill="none" stroke="black" points="244.5,-412 170.5,-412 170.5,-376 244.5,-376 244.5,-412"/>
<text text-anchor="middle" x="207.5" y="-391.2" font-family="Times,serif" font-size="11.00">KYSS_Error</text>
</g>
<!-- \\KYSS_User -->
<g id="node10" class="node"><title>\\KYSS_User</title>
<polygon fill="none" stroke="black" points="243.5,-358 171.5,-358 171.5,-322 243.5,-322 243.5,-358"/>
<text text-anchor="middle" x="207.5" y="-337.2" font-family="Times,serif" font-size="11.00">KYSS_User</text>
</g>
<!-- \\KYSS_Groups -->
<g id="node11" class="node"><title>\\KYSS_Groups</title>
<polygon fill="none" stroke="black" points="249,-304 166,-304 166,-268 249,-268 249,-304"/>
<text text-anchor="middle" x="207.5" y="-283.2" font-family="Times,serif" font-size="11.00">KYSS_Groups</text>
</g>
<!-- \\KYSS_Group -->
<g id="node12" class="node"><title>\\KYSS_Group</title>
<polygon fill="none" stroke="black" points="246.5,-250 168.5,-250 168.5,-214 246.5,-214 246.5,-250"/>
<text text-anchor="middle" x="207.5" y="-229.2" font-family="Times,serif" font-size="11.00">KYSS_Group</text>
</g>
<!-- \\KYSS_Practice -->
<g id="node13" class="node"><title>\\KYSS_Practice</title>
<polygon fill="none" stroke="black" points="251,-196 164,-196 164,-160 251,-160 251,-196"/>
<text text-anchor="middle" x="207.5" y="-175.2" font-family="Times,serif" font-size="11.00">KYSS_Practice</text>
</g>
<!-- \\KYSS_Report -->
<g id="node14" class="node"><title>\\KYSS_Report</title>
<polygon fill="none" stroke="black" points="247.5,-142 167.5,-142 167.5,-106 247.5,-106 247.5,-142"/>
<text text-anchor="middle" x="207.5" y="-121.2" font-family="Times,serif" font-size="11.00">KYSS_Report</text>
</g>
<!-- \\KYSS_Budget -->
<g id="node15" class="node"><title>\\KYSS_Budget</title>
<polygon fill="none" stroke="black" points="248.5,-88 166.5,-88 166.5,-52 248.5,-52 248.5,-88"/>
<text text-anchor="middle" x="207.5" y="-67.2" font-family="Times,serif" font-size="11.00">KYSS_Budget</text>
</g>
</g>
</svg>
