<?xml version="1.0" encoding="UTF-8" standalone="no"?>
<!DOCTYPE svg PUBLIC "-//W3C//DTD SVG 1.1//EN"
 "http://www.w3.org/Graphics/SVG/1.1/DTD/svg11.dtd">
<!-- Generated by graphviz version 2.26.3 (20100126.1600)
 -->
<!-- Title: G Pages: 1 -->
<svg width="324pt" height="476pt"
 viewBox="0.00 0.00 324.00 476.00" xmlns="http://www.w3.org/2000/svg" xmlns:xlink="http://www.w3.org/1999/xlink">
<g id="graph1" class="graph" transform="scale(1 1) rotate(0) translate(4 472)">
<title>G</title>
<polygon fill="white" stroke="white" points="-4,5 -4,-472 321,-472 321,5 -4,5"/>
<g id="graph2" class="cluster"><title>cluster_Global</title>
<polyline fill="none" stroke="gray" points="166,-8 296,-8 "/>
<path fill="none" stroke="gray" d="M296,-8C302,-8 308,-14 308,-20"/>
<polyline fill="none" stroke="gray" points="308,-20 308,-448 "/>
<path fill="none" stroke="gray" d="M308,-448C308,-454 302,-460 296,-460"/>
<polyline fill="none" stroke="gray" points="296,-460 166,-460 "/>
<path fill="none" stroke="gray" d="M166,-460C160,-460 154,-454 154,-448"/>
<polyline fill="none" stroke="gray" points="154,-448 154,-20 "/>
<path fill="none" stroke="gray" d="M154,-20C154,-14 160,-8 166,-8"/>
<text text-anchor="middle" x="231" y="-446.1" font-family="Times Roman,serif" font-size="11.00" fill="gray">Global</text>
</g>
<!-- \\KSES -->
<g id="node2" class="node"><title>\\KSES</title>
<polygon fill="none" stroke="black" points="258,-430 204,-430 204,-394 258,-394 258,-430"/>
<text text-anchor="middle" x="231" y="-409.1" font-family="Times Roman,serif" font-size="11.00">KSES</text>
</g>
<!-- \\KYSS_DB -->
<g id="node3" class="node"><title>\\KYSS_DB</title>
<polygon fill="none" stroke="black" points="264,-376 198,-376 198,-340 264,-340 264,-376"/>
<text text-anchor="middle" x="231" y="-355.1" font-family="Times Roman,serif" font-size="11.00">KYSS_DB</text>
</g>
<!-- \\mysqli -->
<g id="node11" class="node"><title>\\mysqli</title>
<ellipse fill="none" stroke="black" cx="45" cy="-277" rx="45.1673" ry="18"/>
<text text-anchor="middle" x="45" y="-272.9" font-family="Times Roman,serif" font-size="14.00" fill="gray">\mysqli</text>
</g>
<!-- \\KYSS_DB&#45;&gt;\\mysqli -->
<g id="edge3" class="edge"><title>\\KYSS_DB&#45;&gt;\\mysqli</title>
<path fill="none" stroke="black" d="M197.307,-347.187C183.713,-342.565 167.969,-336.883 154,-331 129.078,-320.504 101.816,-306.997 80.7906,-296.118"/>
<polygon fill="none" stroke="black" points="82.3793,-292.999 71.894,-291.479 79.1428,-299.206 82.3793,-292.999"/>
</g>
<!-- \\KYSS_Error -->
<g id="node4" class="node"><title>\\KYSS_Error</title>
<polygon fill="none" stroke="black" points="270,-322 192,-322 192,-286 270,-286 270,-322"/>
<text text-anchor="middle" x="231" y="-301.1" font-family="Times Roman,serif" font-size="11.00">KYSS_Error</text>
</g>
<!-- \\KYSS_Hook -->
<g id="node5" class="node"><title>\\KYSS_Hook</title>
<polygon fill="none" stroke="black" points="270,-268 192,-268 192,-232 270,-232 270,-268"/>
<text text-anchor="middle" x="231" y="-247.1" font-family="Times Roman,serif" font-size="11.00">KYSS_Hook</text>
</g>
<!-- \\KYSS_DB_Deprecated -->
<g id="node6" class="node"><title>\\KYSS_DB_Deprecated</title>
<polygon fill="none" stroke="black" points="299,-214 163,-214 163,-178 299,-178 299,-214"/>
<text text-anchor="middle" x="231" y="-193.1" font-family="Times Roman,serif" font-size="11.00">KYSS_DB_Deprecated</text>
</g>
<!-- \\KYSS_DB_Deprecated&#45;&gt;\\mysqli -->
<g id="edge5" class="edge"><title>\\KYSS_DB_Deprecated&#45;&gt;\\mysqli</title>
<path fill="none" stroke="black" d="M176.829,-214.051C169.108,-216.897 161.311,-219.921 154,-223 129.078,-233.496 101.816,-247.003 80.7906,-257.882"/>
<polygon fill="none" stroke="black" points="79.1428,-254.794 71.894,-262.521 82.3793,-261.001 79.1428,-254.794"/>
</g>
<!-- \\KYSS_User -->
<g id="node7" class="node"><title>\\KYSS_User</title>
<polygon fill="none" stroke="black" points="269,-160 193,-160 193,-124 269,-124 269,-160"/>
<text text-anchor="middle" x="231" y="-139.1" font-family="Times Roman,serif" font-size="11.00">KYSS_User</text>
</g>
<!-- \\KYSS_Groups -->
<g id="node8" class="node"><title>\\KYSS_Groups</title>
<polygon fill="none" stroke="black" points="276,-106 186,-106 186,-70 276,-70 276,-106"/>
<text text-anchor="middle" x="231" y="-85.1" font-family="Times Roman,serif" font-size="11.00">KYSS_Groups</text>
</g>
<!-- \\KYSS_Group -->
<g id="node9" class="node"><title>\\KYSS_Group</title>
<polygon fill="none" stroke="black" points="273,-52 189,-52 189,-16 273,-16 273,-52"/>
<text text-anchor="middle" x="231" y="-31.1" font-family="Times Roman,serif" font-size="11.00">KYSS_Group</text>
</g>
</g>
</svg>
