<?xml version="1.0" encoding="UTF-8" standalone="no"?>
<!DOCTYPE svg PUBLIC "-//W3C//DTD SVG 1.1//EN"
 "http://www.w3.org/Graphics/SVG/1.1/DTD/svg11.dtd">
<!-- Generated by graphviz version 2.38.0 (20140413.2041)
 -->
<!-- Title: G Pages: 1 -->
<svg width="293pt" height="942pt"
 viewBox="0.00 0.00 293.00 942.00" xmlns="http://www.w3.org/2000/svg" xmlns:xlink="http://www.w3.org/1999/xlink">
<g id="graph0" class="graph" transform="scale(1 1) rotate(0) translate(4 938)">
<title>G</title>
<polygon fill="white" stroke="none" points="-4,4 -4,-938 289,-938 289,4 -4,4"/>
<g id="clust1" class="cluster"><title>cluster_Global</title>
<path fill="none" stroke="gray" d="M20,-44C20,-44 265,-44 265,-44 271,-44 277,-50 277,-56 277,-56 277,-914 277,-914 277,-920 271,-926 265,-926 265,-926 20,-926 20,-926 14,-926 8,-920 8,-914 8,-914 8,-56 8,-56 8,-50 14,-44 20,-44"/>
<text text-anchor="middle" x="142.5" y="-913.2" font-family="Times,serif" font-size="11.00" fill="gray">Global</text>
</g>
<!-- \\KYSS_DB -->
<g id="node1" class="node"><title>\\KYSS_DB</title>
<polygon fill="none" stroke="black" points="249.5,-736 183.5,-736 183.5,-700 249.5,-700 249.5,-736"/>
<text text-anchor="middle" x="216.5" y="-715.2" font-family="Times,serif" font-size="11.00">KYSS_DB</text>
</g>
<!-- \\mysqli -->
<g id="node18" class="node"><title>\\mysqli</title>
<ellipse fill="none" stroke="black" cx="54" cy="-18" rx="37.8943" ry="18"/>
<text text-anchor="middle" x="54" y="-14.3" font-family="Times,serif" font-size="14.00" fill="gray">\mysqli</text>
</g>
<!-- \\KYSS_DB&#45;&gt;\\mysqli -->
<g id="edge1" class="edge"><title>\\KYSS_DB&#45;&gt;\\mysqli</title>
<path fill="none" stroke="black" d="M183.471,-707.298C175.97,-703.318 168.781,-698.003 164,-691 -0.134321,-450.588 249.638,-284.72 92,-40 91.2943,-38.9045 90.5131,-37.8561 89.6699,-36.8535"/>
<polygon fill="none" stroke="black" points="91.9605,-34.2055 82.2176,-30.0429 87.2382,-39.3727 91.9605,-34.2055"/>
</g>
<!-- \\KYSS_Subscription -->
<g id="node2" class="node"><title>\\KYSS_Subscription</title>
<polygon fill="none" stroke="black" points="269,-844 164,-844 164,-808 269,-808 269,-844"/>
<text text-anchor="middle" x="216.5" y="-823.2" font-family="Times,serif" font-size="11.00">KYSS_Subscription</text>
</g>
<!-- \\KYSS_Event -->
<g id="node3" class="node"><title>\\KYSS_Event</title>
<polygon fill="none" stroke="black" points="92,-844 16,-844 16,-808 92,-808 92,-844"/>
<text text-anchor="middle" x="54" y="-823.2" font-family="Times,serif" font-size="11.00">KYSS_Event</text>
</g>
<!-- \\KYSS_Meeting -->
<g id="node4" class="node"><title>\\KYSS_Meeting</title>
<polygon fill="none" stroke="black" points="260,-898 173,-898 173,-862 260,-862 260,-898"/>
<text text-anchor="middle" x="216.5" y="-877.2" font-family="Times,serif" font-size="11.00">KYSS_Meeting</text>
</g>
<!-- \\KYSS_Meeting&#45;&gt;\\KYSS_Event -->
<g id="edge2" class="edge"><title>\\KYSS_Meeting&#45;&gt;\\KYSS_Event</title>
<path fill="none" stroke="black" d="M172.91,-865.671C150.987,-858.295 124.214,-849.287 101.724,-841.72"/>
<polygon fill="none" stroke="black" points="102.645,-838.337 92.051,-838.466 100.413,-844.972 102.645,-838.337"/>
</g>
<!-- \\KYSS_Course -->
<g id="node5" class="node"><title>\\KYSS_Course</title>
<polygon fill="none" stroke="black" points="257.5,-790 175.5,-790 175.5,-754 257.5,-754 257.5,-790"/>
<text text-anchor="middle" x="216.5" y="-769.2" font-family="Times,serif" font-size="11.00">KYSS_Course</text>
</g>
<!-- \\KYSS_Course&#45;&gt;\\KYSS_Event -->
<g id="edge3" class="edge"><title>\\KYSS_Course&#45;&gt;\\KYSS_Event</title>
<path fill="none" stroke="black" d="M175.413,-785.487C153.071,-793.004 125.133,-802.404 101.794,-810.256"/>
<polygon fill="none" stroke="black" points="100.465,-807.011 92.1031,-813.517 102.697,-813.645 100.465,-807.011"/>
</g>
<!-- \\KYSS_Talk -->
<g id="node6" class="node"><title>\\KYSS_Talk</title>
<polygon fill="none" stroke="black" points="252,-682 181,-682 181,-646 252,-646 252,-682"/>
<text text-anchor="middle" x="216.5" y="-661.2" font-family="Times,serif" font-size="11.00">KYSS_Talk</text>
</g>
<!-- \\KYSS_Lesson -->
<g id="node7" class="node"><title>\\KYSS_Lesson</title>
<polygon fill="none" stroke="black" points="257.5,-628 175.5,-628 175.5,-592 257.5,-592 257.5,-628"/>
<text text-anchor="middle" x="216.5" y="-607.2" font-family="Times,serif" font-size="11.00">KYSS_Lesson</text>
</g>
<!-- \\KYSS_Pass -->
<g id="node8" class="node"><title>\\KYSS_Pass</title>
<polygon fill="none" stroke="black" points="252,-574 181,-574 181,-538 252,-538 252,-574"/>
<text text-anchor="middle" x="216.5" y="-553.2" font-family="Times,serif" font-size="11.00">KYSS_Pass</text>
</g>
<!-- \\KYSS_Hook -->
<g id="node9" class="node"><title>\\KYSS_Hook</title>
<polygon fill="none" stroke="black" points="253.5,-520 179.5,-520 179.5,-484 253.5,-484 253.5,-520"/>
<text text-anchor="middle" x="216.5" y="-499.2" font-family="Times,serif" font-size="11.00">KYSS_Hook</text>
</g>
<!-- \\KYSS_Error -->
<g id="node10" class="node"><title>\\KYSS_Error</title>
<polygon fill="none" stroke="black" points="253.5,-466 179.5,-466 179.5,-430 253.5,-430 253.5,-466"/>
<text text-anchor="middle" x="216.5" y="-445.2" font-family="Times,serif" font-size="11.00">KYSS_Error</text>
</g>
<!-- \\KYSS_User -->
<g id="node11" class="node"><title>\\KYSS_User</title>
<polygon fill="none" stroke="black" points="252.5,-412 180.5,-412 180.5,-376 252.5,-376 252.5,-412"/>
<text text-anchor="middle" x="216.5" y="-391.2" font-family="Times,serif" font-size="11.00">KYSS_User</text>
</g>
<!-- \\KYSS_Office -->
<g id="node12" class="node"><title>\\KYSS_Office</title>
<polygon fill="none" stroke="black" points="256.5,-358 176.5,-358 176.5,-322 256.5,-322 256.5,-358"/>
<text text-anchor="middle" x="216.5" y="-337.2" font-family="Times,serif" font-size="11.00">KYSS_Office</text>
</g>
<!-- \\KYSS_Groups -->
<g id="node13" class="node"><title>\\KYSS_Groups</title>
<polygon fill="none" stroke="black" points="258,-304 175,-304 175,-268 258,-268 258,-304"/>
<text text-anchor="middle" x="216.5" y="-283.2" font-family="Times,serif" font-size="11.00">KYSS_Groups</text>
</g>
<!-- \\KYSS_Group -->
<g id="node14" class="node"><title>\\KYSS_Group</title>
<polygon fill="none" stroke="black" points="255.5,-250 177.5,-250 177.5,-214 255.5,-214 255.5,-250"/>
<text text-anchor="middle" x="216.5" y="-229.2" font-family="Times,serif" font-size="11.00">KYSS_Group</text>
</g>
<!-- \\KYSS_Practice -->
<g id="node15" class="node"><title>\\KYSS_Practice</title>
<polygon fill="none" stroke="black" points="260,-196 173,-196 173,-160 260,-160 260,-196"/>
<text text-anchor="middle" x="216.5" y="-175.2" font-family="Times,serif" font-size="11.00">KYSS_Practice</text>
</g>
<!-- \\KYSS_Report -->
<g id="node16" class="node"><title>\\KYSS_Report</title>
<polygon fill="none" stroke="black" points="256.5,-142 176.5,-142 176.5,-106 256.5,-106 256.5,-142"/>
<text text-anchor="middle" x="216.5" y="-121.2" font-family="Times,serif" font-size="11.00">KYSS_Report</text>
</g>
<!-- \\KYSS_Budget -->
<g id="node17" class="node"><title>\\KYSS_Budget</title>
<polygon fill="none" stroke="black" points="257.5,-88 175.5,-88 175.5,-52 257.5,-52 257.5,-88"/>
<text text-anchor="middle" x="216.5" y="-67.2" font-family="Times,serif" font-size="11.00">KYSS_Budget</text>
</g>
</g>
</svg>
